<svg xmlns="http://www.w3.org/2000/svg" xmlns:xlink="http://www.w3.org/1999/xlink" width="500" zoomAndPan="magnify" viewBox="0 0 375 374.999991" height="500" preserveAspectRatio="xMidYMid meet" version="1.0"><defs><g/><clipPath id="0049679bbc"><path d="M 13.773438 177 L 60 177 L 60 218.757812 L 13.773438 218.757812 Z M 13.773438 177 " clip-rule="nonzero"/></clipPath><clipPath id="e872e372c1"><path d="M 59 156.507812 L 106 156.507812 L 106 198 L 59 198 Z M 59 156.507812 " clip-rule="nonzero"/></clipPath><clipPath id="51f90ac047"><path d="M 354.554688 207.570312 L 365.472656 207.570312 L 365.472656 218.492188 L 354.554688 218.492188 Z M 354.554688 207.570312 " clip-rule="nonzero"/></clipPath><clipPath id="015727ce99"><path d="M 360.015625 207.570312 C 357 207.570312 354.554688 210.015625 354.554688 213.03125 C 354.554688 216.046875 357 218.492188 360.015625 218.492188 C 363.03125 218.492188 365.472656 216.046875 365.472656 213.03125 C 365.472656 210.015625 363.03125 207.570312 360.015625 207.570312 Z M 360.015625 207.570312 " clip-rule="nonzero"/></clipPath></defs><g clip-path="url(#0049679bbc)"><path fill="#1cdaff" d="M 44.804688 206.613281 L 44.804688 212.222656 L 19.402344 200.421875 L 19.402344 195.871094 L 44.804688 184.066406 L 44.804688 189.679688 L 25.59375 198.09375 L 25.59375 198.199219 Z M 59.890625 177.835938 L 17.410156 177.835938 C 15.402344 177.835938 13.777344 179.460938 13.777344 181.464844 L 13.777344 214.824219 C 13.777344 216.828125 15.402344 218.457031 17.410156 218.457031 L 48.097656 218.457031 L 59.890625 177.835938 " fill-opacity="1" fill-rule="nonzero"/></g><g clip-path="url(#e872e372c1)"><path fill="#00faa8" d="M 100.3125 179.277344 L 74.910156 190.921875 L 74.910156 185.308594 L 94.542969 176.894531 L 94.542969 176.789062 L 74.910156 168.375 L 74.910156 162.765625 L 100.3125 174.40625 Z M 71.683594 156.53125 L 59.890625 197.152344 L 102.304688 197.152344 C 104.308594 197.152344 105.9375 195.527344 105.9375 193.519531 L 105.9375 160.164062 C 105.9375 158.15625 104.308594 156.53125 102.304688 156.53125 L 71.683594 156.53125 " fill-opacity="1" fill-rule="nonzero"/></g><g fill="#ffffff" fill-opacity="1"><g transform="translate(118.47448, 184.583323)"><g><path d="M 2.984375 -24.609375 L 15.328125 -24.609375 L 15.328125 -22.21875 L 5.453125 -22.21875 L 5.453125 -14.5 L 15.328125 -14.5 L 15.328125 -12.09375 L 5.453125 -12.09375 L 5.453125 0 L 2.984375 0 Z M 2.984375 -24.609375 "/></g></g></g><g fill="#ffffff" fill-opacity="1"><g transform="translate(135.099013, 184.583323)"><g><path d="M 21.078125 0 L 17.3125 -8.09375 L 6.515625 -8.09375 L 2.75 0 L 0.171875 0 L 11.65625 -24.609375 L 12.234375 -24.609375 L 23.65625 0 Z M 7.609375 -10.421875 L 16.21875 -10.421875 L 11.9375 -19.640625 Z M 7.609375 -10.421875 "/></g></g></g><g fill="#ffffff" fill-opacity="1"><g transform="translate(158.921788, 184.583323)"><g><path d="M 8.1875 -24.609375 C 9.863281 -24.609375 11.265625 -24.351562 12.390625 -23.84375 C 13.523438 -23.332031 14.363281 -22.628906 14.90625 -21.734375 C 15.457031 -20.835938 15.734375 -19.796875 15.734375 -18.609375 C 15.734375 -17.515625 15.46875 -16.519531 14.9375 -15.625 C 14.414062 -14.738281 13.628906 -14.007812 12.578125 -13.4375 C 16.023438 -12.269531 17.75 -10.144531 17.75 -7.0625 C 17.75 -5.800781 17.4375 -4.632812 16.8125 -3.5625 C 16.1875 -2.488281 15.265625 -1.625 14.046875 -0.96875 C 12.835938 -0.320312 11.398438 0 9.734375 0 L 2.984375 0 L 2.984375 -24.609375 Z M 7.09375 -14.296875 C 9.007812 -14.296875 10.5 -14.644531 11.5625 -15.34375 C 12.625 -16.039062 13.15625 -17.128906 13.15625 -18.609375 C 13.15625 -19.710938 12.757812 -20.585938 11.96875 -21.234375 C 11.1875 -21.890625 10.085938 -22.21875 8.671875 -22.21875 L 5.453125 -22.21875 L 5.453125 -14.296875 Z M 9.25 -2.40625 C 10.582031 -2.40625 11.691406 -2.613281 12.578125 -3.03125 C 13.472656 -3.457031 14.128906 -4.023438 14.546875 -4.734375 C 14.972656 -5.441406 15.1875 -6.207031 15.1875 -7.03125 C 15.1875 -8.0625 14.90625 -8.941406 14.34375 -9.671875 C 13.78125 -10.398438 12.960938 -10.953125 11.890625 -11.328125 C 10.816406 -11.703125 9.523438 -11.890625 8.015625 -11.890625 L 5.453125 -11.890625 L 5.453125 -2.40625 Z M 9.25 -2.40625 "/></g></g></g><g fill="#ffffff" fill-opacity="1"><g transform="translate(178.528446, 184.583323)"><g><path d="M 2.984375 -24.609375 L 5.453125 -24.609375 L 5.453125 0 L 2.984375 0 Z M 2.984375 -24.609375 "/></g></g></g><g fill="#ffffff" fill-opacity="1"><g transform="translate(186.926406, 184.583323)"><g><path d="M 21.078125 0 L 17.3125 -8.09375 L 6.515625 -8.09375 L 2.75 0 L 0.171875 0 L 11.65625 -24.609375 L 12.234375 -24.609375 L 23.65625 0 Z M 7.609375 -10.421875 L 16.21875 -10.421875 L 11.9375 -19.640625 Z M 7.609375 -10.421875 "/></g></g></g><g fill="#ffffff" fill-opacity="1"><g transform="translate(210.749181, 184.583323)"><g><path d="M 19.8125 -24.609375 L 22.28125 -24.609375 L 22.28125 0 L 21.734375 0 L 5.453125 -18.609375 L 5.453125 0 L 2.984375 0 L 2.984375 -24.609375 L 3.5 -24.609375 L 19.8125 -5.765625 Z M 19.8125 -24.609375 "/></g></g></g><g fill="#ffffff" fill-opacity="1"><g transform="translate(118.47448, 213.833321)"><g><path d="M 9.046875 -24.609375 C 12.160156 -24.609375 14.8125 -24.132812 17 -23.1875 C 19.195312 -22.238281 20.867188 -20.828125 22.015625 -18.953125 C 23.171875 -17.078125 23.75 -14.769531 23.75 -12.03125 C 23.75 -8.101562 22.632812 -5.113281 20.40625 -3.0625 C 18.1875 -1.019531 14.78125 0 10.1875 0 L 2.984375 0 L 2.984375 -24.609375 Z M 10.1875 -2.40625 C 13.769531 -2.40625 16.5 -3.179688 18.375 -4.734375 C 20.25 -6.285156 21.1875 -8.707031 21.1875 -12 C 21.1875 -15.519531 20.128906 -18.101562 18.015625 -19.75 C 15.898438 -21.394531 12.910156 -22.21875 9.046875 -22.21875 L 5.453125 -22.21875 L 5.453125 -2.40625 Z M 10.1875 -2.40625 "/></g></g></g><g fill="#ffffff" fill-opacity="1"><g transform="translate(144.148234, 213.833321)"><g><path d="M 2.984375 -24.609375 L 17.03125 -24.609375 L 17.03125 -22.25 L 5.453125 -22.25 L 5.453125 -14.46875 L 17.03125 -14.46875 L 17.03125 -12.140625 L 5.453125 -12.140625 L 5.453125 -2.40625 L 17.03125 -2.40625 L 17.03125 0 L 2.984375 0 Z M 2.984375 -24.609375 "/></g></g></g><g fill="#ffffff" fill-opacity="1"><g transform="translate(162.486634, 213.833321)"><g><path d="M 1.125 -24.609375 L 3.8125 -24.609375 L 11.96875 -5.59375 L 20.265625 -24.609375 L 22.9375 -24.609375 L 12.234375 0 L 11.6875 0 Z M 1.125 -24.609375 "/></g></g></g><g fill="#ffffff" fill-opacity="1"><g transform="translate(186.549357, 213.833321)"><g/></g></g><g fill="#ffffff" fill-opacity="1"><g transform="translate(196.044188, 213.833321)"><g><path d="M 7.375 0.578125 C 6.226562 0.578125 5.132812 0.332031 4.09375 -0.15625 C 3.050781 -0.644531 2.164062 -1.253906 1.4375 -1.984375 L 2.8125 -4.046875 C 3.519531 -3.359375 4.265625 -2.8125 5.046875 -2.40625 C 5.835938 -2.007812 6.625 -1.8125 7.40625 -1.8125 C 8.570312 -1.8125 9.46875 -2.207031 10.09375 -3 C 10.71875 -3.789062 11.03125 -5.078125 11.03125 -6.859375 L 11.03125 -24.609375 L 13.5 -24.609375 L 13.5 -6.4375 C 13.5 -1.757812 11.457031 0.578125 7.375 0.578125 Z M 7.375 0.578125 "/></g></g></g><g fill="#ffffff" fill-opacity="1"><g transform="translate(212.565885, 213.833321)"><g><path d="M 14.90625 0.609375 C 12.4375 0.609375 10.210938 0.03125 8.234375 -1.125 C 6.265625 -2.289062 4.71875 -3.859375 3.59375 -5.828125 C 2.476562 -7.796875 1.921875 -9.921875 1.921875 -12.203125 C 1.921875 -14.597656 2.488281 -16.789062 3.625 -18.78125 C 4.769531 -20.769531 6.316406 -22.34375 8.265625 -23.5 C 10.222656 -24.65625 12.367188 -25.234375 14.703125 -25.234375 C 17.148438 -25.234375 19.378906 -24.664062 21.390625 -23.53125 C 23.398438 -22.40625 24.984375 -20.851562 26.140625 -18.875 C 27.296875 -16.894531 27.875 -14.707031 27.875 -12.3125 C 27.875 -9.925781 27.300781 -7.742188 26.15625 -5.765625 C 25.007812 -3.796875 23.445312 -2.238281 21.46875 -1.09375 C 19.5 0.0390625 17.3125 0.609375 14.90625 0.609375 Z M 14.84375 -1.78125 C 16.738281 -1.78125 18.484375 -2.226562 20.078125 -3.125 C 21.679688 -4.03125 22.953125 -5.289062 23.890625 -6.90625 C 24.828125 -8.519531 25.296875 -10.332031 25.296875 -12.34375 C 25.296875 -14.351562 24.8125 -16.15625 23.84375 -17.75 C 22.875 -19.351562 21.585938 -20.597656 19.984375 -21.484375 C 18.390625 -22.378906 16.675781 -22.828125 14.84375 -22.828125 C 13.039062 -22.828125 11.34375 -22.375 9.75 -21.46875 C 8.164062 -20.570312 6.890625 -19.3125 5.921875 -17.6875 C 4.960938 -16.0625 4.484375 -14.234375 4.484375 -12.203125 C 4.484375 -10.234375 4.957031 -8.453125 5.90625 -6.859375 C 6.863281 -5.273438 8.128906 -4.03125 9.703125 -3.125 C 11.273438 -2.226562 12.988281 -1.78125 14.84375 -1.78125 Z M 14.84375 -1.78125 "/></g></g></g><g fill="#ffffff" fill-opacity="1"><g transform="translate(242.352931, 213.833321)"><g><path d="M 11.25 0.609375 C 9.570312 0.609375 8.125 0.242188 6.90625 -0.484375 C 5.6875 -1.210938 4.742188 -2.265625 4.078125 -3.640625 C 3.410156 -5.023438 3.078125 -6.679688 3.078125 -8.609375 L 3.078125 -24.609375 L 5.546875 -24.609375 L 5.546875 -8.125 C 5.546875 -6.894531 5.757812 -5.800781 6.1875 -4.84375 C 6.613281 -3.894531 7.253906 -3.144531 8.109375 -2.59375 C 8.960938 -2.050781 10.007812 -1.78125 11.25 -1.78125 C 12.5 -1.78125 13.546875 -2.050781 14.390625 -2.59375 C 15.242188 -3.144531 15.878906 -3.894531 16.296875 -4.84375 C 16.722656 -5.800781 16.9375 -6.859375 16.9375 -8.015625 L 16.9375 -24.609375 L 19.40625 -24.609375 L 19.40625 -8.609375 C 19.40625 -6.679688 19.070312 -5.023438 18.40625 -3.640625 C 17.75 -2.265625 16.804688 -1.210938 15.578125 -0.484375 C 14.359375 0.242188 12.914062 0.609375 11.25 0.609375 Z M 11.25 0.609375 "/></g></g></g><g fill="#ffffff" fill-opacity="1"><g transform="translate(264.804612, 213.833321)"><g><path d="M 10.015625 -24.609375 C 12.828125 -24.609375 14.925781 -24.023438 16.3125 -22.859375 C 17.707031 -21.703125 18.40625 -20.101562 18.40625 -18.0625 C 18.40625 -16.601562 18.050781 -15.378906 17.34375 -14.390625 C 16.632812 -13.410156 15.640625 -12.675781 14.359375 -12.1875 C 13.078125 -11.695312 11.582031 -11.453125 9.875 -11.453125 L 18.75 0 L 15.703125 0 L 7 -11.453125 L 5.453125 -11.453125 L 5.453125 0 L 2.984375 0 L 2.984375 -24.609375 Z M 9.875 -13.84375 C 11.769531 -13.84375 13.238281 -14.1875 14.28125 -14.875 C 15.320312 -15.5625 15.84375 -16.625 15.84375 -18.0625 C 15.84375 -19.320312 15.394531 -20.328125 14.5 -21.078125 C 13.601562 -21.835938 12.265625 -22.21875 10.484375 -22.21875 L 5.453125 -22.21875 L 5.453125 -13.84375 Z M 9.875 -13.84375 "/></g></g></g><g fill="#ffffff" fill-opacity="1"><g transform="translate(285.096816, 213.833321)"><g><path d="M 19.8125 -24.609375 L 22.28125 -24.609375 L 22.28125 0 L 21.734375 0 L 5.453125 -18.609375 L 5.453125 0 L 2.984375 0 L 2.984375 -24.609375 L 3.5 -24.609375 L 19.8125 -5.765625 Z M 19.8125 -24.609375 "/></g></g></g><g fill="#ffffff" fill-opacity="1"><g transform="translate(310.324972, 213.833321)"><g><path d="M 2.984375 -24.609375 L 17.03125 -24.609375 L 17.03125 -22.25 L 5.453125 -22.25 L 5.453125 -14.46875 L 17.03125 -14.46875 L 17.03125 -12.140625 L 5.453125 -12.140625 L 5.453125 -2.40625 L 17.03125 -2.40625 L 17.03125 0 L 2.984375 0 Z M 2.984375 -24.609375 "/></g></g></g><g fill="#ffffff" fill-opacity="1"><g transform="translate(328.663384, 213.833321)"><g><path d="M 8.4375 -11.765625 L 0.515625 -24.609375 L 3.359375 -24.609375 L 9.671875 -14.46875 L 15.875 -24.609375 L 18.71875 -24.609375 L 10.90625 -11.765625 L 10.90625 0 L 8.4375 0 Z M 8.4375 -11.765625 "/></g></g></g><g clip-path="url(#51f90ac047)"><g clip-path="url(#015727ce99)"><path fill="#00faa8" d="M 354.554688 207.570312 L 365.472656 207.570312 L 365.472656 218.492188 L 354.554688 218.492188 Z M 354.554688 207.570312 " fill-opacity="1" fill-rule="nonzero"/></g></g></svg>