<svg xmlns="http://www.w3.org/2000/svg" xmlns:xlink="http://www.w3.org/1999/xlink" width="500" zoomAndPan="magnify" viewBox="0 0 375 112.499997" height="150" preserveAspectRatio="xMidYMid meet" version="1.0"><defs><g/><clipPath id="8336cc3847"><path d="M 7.6875 47 L 54 47 L 54 88.53125 L 7.6875 88.53125 Z M 7.6875 47 " clip-rule="nonzero"/></clipPath><clipPath id="0eff98aeeb"><path d="M 53 26.558594 L 99.527344 26.558594 L 99.527344 68 L 53 68 Z M 53 26.558594 " clip-rule="nonzero"/></clipPath><clipPath id="03fcc82044"><path d="M 346.957031 77.394531 L 357.832031 77.394531 L 357.832031 88.265625 L 346.957031 88.265625 Z M 346.957031 77.394531 " clip-rule="nonzero"/></clipPath><clipPath id="bcc79b198b"><path d="M 352.394531 77.394531 C 349.390625 77.394531 346.957031 79.828125 346.957031 82.828125 C 346.957031 85.832031 349.390625 88.265625 352.394531 88.265625 C 355.398438 88.265625 357.832031 85.832031 357.832031 82.828125 C 357.832031 79.828125 355.398438 77.394531 352.394531 77.394531 Z M 352.394531 77.394531 " clip-rule="nonzero"/></clipPath></defs><g clip-path="url(#8336cc3847)"><path fill="#1cdaff" d="M 38.578125 76.441406 L 38.578125 82.023438 L 13.289062 70.273438 L 13.289062 65.742188 L 38.578125 53.996094 L 38.578125 59.578125 L 19.453125 67.957031 L 19.453125 68.0625 Z M 53.597656 47.789062 L 11.304688 47.789062 C 9.308594 47.789062 7.691406 49.40625 7.691406 51.40625 L 7.691406 84.617188 C 7.691406 86.613281 9.308594 88.230469 11.304688 88.230469 L 41.859375 88.230469 L 53.597656 47.789062 " fill-opacity="1" fill-rule="nonzero"/></g><g clip-path="url(#0eff98aeeb)"><path fill="#00faa8" d="M 93.839844 49.226562 L 68.550781 60.816406 L 68.550781 55.230469 L 88.097656 46.855469 L 88.097656 46.75 L 68.550781 38.371094 L 68.550781 32.785156 L 93.839844 44.378906 Z M 65.339844 26.582031 L 53.597656 67.023438 L 95.824219 67.023438 C 97.820312 67.023438 99.441406 65.402344 99.441406 63.40625 L 99.441406 30.195312 C 99.441406 28.199219 97.820312 26.582031 95.824219 26.582031 L 65.339844 26.582031 " fill-opacity="1" fill-rule="nonzero"/></g><g fill="#ffffff" fill-opacity="1"><g transform="translate(111.923516, 54.507739)"><g><path d="M 2.96875 -24.5 L 15.25 -24.5 L 15.25 -22.109375 L 5.421875 -22.109375 L 5.421875 -14.4375 L 15.25 -14.4375 L 15.25 -12.046875 L 5.421875 -12.046875 L 5.421875 0 L 2.96875 0 Z M 2.96875 -24.5 "/></g></g></g><g fill="#ffffff" fill-opacity="1"><g transform="translate(128.47449, 54.507739)"><g><path d="M 20.984375 0 L 17.234375 -8.046875 L 6.484375 -8.046875 L 2.734375 0 L 0.171875 0 L 11.609375 -24.5 L 12.1875 -24.5 L 23.546875 0 Z M 7.578125 -10.375 L 16.140625 -10.375 L 11.875 -19.546875 Z M 7.578125 -10.375 "/></g></g></g><g fill="#ffffff" fill-opacity="1"><g transform="translate(152.191854, 54.507739)"><g><path d="M 8.15625 -24.5 C 9.8125 -24.5 11.203125 -24.242188 12.328125 -23.734375 C 13.460938 -23.222656 14.300781 -22.519531 14.84375 -21.625 C 15.382812 -20.738281 15.65625 -19.707031 15.65625 -18.53125 C 15.65625 -17.4375 15.394531 -16.445312 14.875 -15.5625 C 14.351562 -14.675781 13.570312 -13.945312 12.53125 -13.375 C 15.957031 -12.21875 17.671875 -10.101562 17.671875 -7.03125 C 17.671875 -5.78125 17.359375 -4.617188 16.734375 -3.546875 C 16.109375 -2.472656 15.191406 -1.613281 13.984375 -0.96875 C 12.785156 -0.320312 11.351562 0 9.6875 0 L 2.96875 0 L 2.96875 -24.5 Z M 7.0625 -14.234375 C 8.976562 -14.234375 10.460938 -14.578125 11.515625 -15.265625 C 12.578125 -15.960938 13.109375 -17.050781 13.109375 -18.53125 C 13.109375 -19.625 12.710938 -20.492188 11.921875 -21.140625 C 11.140625 -21.785156 10.046875 -22.109375 8.640625 -22.109375 L 5.421875 -22.109375 L 5.421875 -14.234375 Z M 9.21875 -2.390625 C 10.53125 -2.390625 11.628906 -2.597656 12.515625 -3.015625 C 13.410156 -3.441406 14.066406 -4.003906 14.484375 -4.703125 C 14.910156 -5.410156 15.125 -6.175781 15.125 -7 C 15.125 -8.019531 14.84375 -8.894531 14.28125 -9.625 C 13.71875 -10.351562 12.898438 -10.90625 11.828125 -11.28125 C 10.765625 -11.65625 9.484375 -11.84375 7.984375 -11.84375 L 5.421875 -11.84375 L 5.421875 -2.390625 Z M 9.21875 -2.390625 "/></g></g></g><g fill="#ffffff" fill-opacity="1"><g transform="translate(171.711756, 54.507739)"><g><path d="M 2.96875 -24.5 L 5.421875 -24.5 L 5.421875 0 L 2.96875 0 Z M 2.96875 -24.5 "/></g></g></g><g fill="#ffffff" fill-opacity="1"><g transform="translate(180.072557, 54.507739)"><g><path d="M 20.984375 0 L 17.234375 -8.046875 L 6.484375 -8.046875 L 2.734375 0 L 0.171875 0 L 11.609375 -24.5 L 12.1875 -24.5 L 23.546875 0 Z M 7.578125 -10.375 L 16.140625 -10.375 L 11.875 -19.546875 Z M 7.578125 -10.375 "/></g></g></g><g fill="#ffffff" fill-opacity="1"><g transform="translate(203.789922, 54.507739)"><g><path d="M 19.71875 -24.5 L 22.1875 -24.5 L 22.1875 0 L 21.640625 0 L 5.421875 -18.53125 L 5.421875 0 L 2.96875 0 L 2.96875 -24.5 L 3.484375 -24.5 L 19.71875 -5.734375 Z M 19.71875 -24.5 "/></g></g></g><g fill="#ffffff" fill-opacity="1"><g transform="translate(111.923516, 83.628313)"><g><path d="M 9.015625 -24.5 C 12.109375 -24.5 14.742188 -24.023438 16.921875 -23.078125 C 19.109375 -22.140625 20.773438 -20.738281 21.921875 -18.875 C 23.078125 -17.007812 23.65625 -14.710938 23.65625 -11.984375 C 23.65625 -8.066406 22.546875 -5.085938 20.328125 -3.046875 C 18.109375 -1.015625 14.710938 0 10.140625 0 L 2.96875 0 L 2.96875 -24.5 Z M 10.140625 -2.390625 C 13.710938 -2.390625 16.429688 -3.160156 18.296875 -4.703125 C 20.160156 -6.253906 21.09375 -8.664062 21.09375 -11.9375 C 21.09375 -15.445312 20.039062 -18.019531 17.9375 -19.65625 C 15.832031 -21.289062 12.859375 -22.109375 9.015625 -22.109375 L 5.421875 -22.109375 L 5.421875 -2.390625 Z M 10.140625 -2.390625 "/></g></g></g><g fill="#ffffff" fill-opacity="1"><g transform="translate(137.483669, 83.628313)"><g><path d="M 2.96875 -24.5 L 16.953125 -24.5 L 16.953125 -22.140625 L 5.421875 -22.140625 L 5.421875 -14.40625 L 16.953125 -14.40625 L 16.953125 -12.078125 L 5.421875 -12.078125 L 5.421875 -2.390625 L 16.953125 -2.390625 L 16.953125 0 L 2.96875 0 Z M 2.96875 -24.5 "/></g></g></g><g fill="#ffffff" fill-opacity="1"><g transform="translate(155.740926, 83.628313)"><g><path d="M 1.125 -24.5 L 3.78125 -24.5 L 11.90625 -5.5625 L 20.171875 -24.5 L 22.828125 -24.5 L 12.1875 0 L 11.640625 0 Z M 1.125 -24.5 "/></g></g></g><g fill="#ffffff" fill-opacity="1"><g transform="translate(179.697177, 83.628313)"><g/></g></g><g fill="#ffffff" fill-opacity="1"><g transform="translate(189.149995, 83.628313)"><g><path d="M 7.34375 0.578125 C 6.195312 0.578125 5.109375 0.332031 4.078125 -0.15625 C 3.046875 -0.644531 2.164062 -1.253906 1.4375 -1.984375 L 2.796875 -4.03125 C 3.503906 -3.34375 4.25 -2.800781 5.03125 -2.40625 C 5.8125 -2.007812 6.59375 -1.8125 7.375 -1.8125 C 8.53125 -1.8125 9.421875 -2.203125 10.046875 -2.984375 C 10.671875 -3.765625 10.984375 -5.046875 10.984375 -6.828125 L 10.984375 -24.5 L 13.4375 -24.5 L 13.4375 -6.421875 C 13.4375 -1.753906 11.40625 0.578125 7.34375 0.578125 Z M 7.34375 0.578125 "/></g></g></g><g fill="#ffffff" fill-opacity="1"><g transform="translate(205.598587, 83.628313)"><g><path d="M 14.84375 0.609375 C 12.382812 0.609375 10.171875 0.03125 8.203125 -1.125 C 6.234375 -2.28125 4.691406 -3.835938 3.578125 -5.796875 C 2.460938 -7.753906 1.90625 -9.875 1.90625 -12.15625 C 1.90625 -14.539062 2.472656 -16.722656 3.609375 -18.703125 C 4.753906 -20.679688 6.296875 -22.242188 8.234375 -23.390625 C 10.179688 -24.535156 12.316406 -25.109375 14.640625 -25.109375 C 17.078125 -25.109375 19.296875 -24.546875 21.296875 -23.421875 C 23.296875 -22.296875 24.867188 -20.75 26.015625 -18.78125 C 27.171875 -16.8125 27.75 -14.632812 27.75 -12.25 C 27.75 -9.882812 27.175781 -7.71875 26.03125 -5.75 C 24.894531 -3.78125 23.34375 -2.226562 21.375 -1.09375 C 19.40625 0.0390625 17.226562 0.609375 14.84375 0.609375 Z M 14.78125 -1.78125 C 16.664062 -1.78125 18.40625 -2.226562 20 -3.125 C 21.59375 -4.019531 22.851562 -5.269531 23.78125 -6.875 C 24.71875 -8.476562 25.1875 -10.28125 25.1875 -12.28125 C 25.1875 -14.28125 24.703125 -16.078125 23.734375 -17.671875 C 22.765625 -19.265625 21.484375 -20.503906 19.890625 -21.390625 C 18.296875 -22.285156 16.59375 -22.734375 14.78125 -22.734375 C 12.976562 -22.734375 11.285156 -22.28125 9.703125 -21.375 C 8.128906 -20.476562 6.863281 -19.222656 5.90625 -17.609375 C 4.945312 -15.992188 4.46875 -14.175781 4.46875 -12.15625 C 4.46875 -10.195312 4.9375 -8.425781 5.875 -6.84375 C 6.820312 -5.257812 8.082031 -4.019531 9.65625 -3.125 C 11.226562 -2.226562 12.9375 -1.78125 14.78125 -1.78125 Z M 14.78125 -1.78125 "/></g></g></g><g fill="#ffffff" fill-opacity="1"><g transform="translate(235.253832, 83.628313)"><g><path d="M 11.1875 0.609375 C 9.53125 0.609375 8.09375 0.25 6.875 -0.46875 C 5.65625 -1.195312 4.71875 -2.25 4.0625 -3.625 C 3.40625 -5.007812 3.078125 -6.65625 3.078125 -8.5625 L 3.078125 -24.5 L 5.53125 -24.5 L 5.53125 -8.09375 C 5.53125 -6.863281 5.738281 -5.773438 6.15625 -4.828125 C 6.582031 -3.878906 7.21875 -3.132812 8.0625 -2.59375 C 8.914062 -2.050781 9.957031 -1.78125 11.1875 -1.78125 C 12.4375 -1.78125 13.484375 -2.050781 14.328125 -2.59375 C 15.171875 -3.132812 15.800781 -3.878906 16.21875 -4.828125 C 16.644531 -5.773438 16.859375 -6.828125 16.859375 -7.984375 L 16.859375 -24.5 L 19.3125 -24.5 L 19.3125 -8.5625 C 19.3125 -6.65625 18.976562 -5.007812 18.3125 -3.625 C 17.65625 -2.25 16.71875 -1.195312 15.5 -0.46875 C 14.289062 0.25 12.851562 0.609375 11.1875 0.609375 Z M 11.1875 0.609375 "/></g></g></g><g fill="#ffffff" fill-opacity="1"><g transform="translate(257.606169, 83.628313)"><g><path d="M 9.96875 -24.5 C 12.757812 -24.5 14.847656 -23.914062 16.234375 -22.75 C 17.628906 -21.59375 18.328125 -20.003906 18.328125 -17.984375 C 18.328125 -16.523438 17.972656 -15.304688 17.265625 -14.328125 C 16.554688 -13.347656 15.566406 -12.613281 14.296875 -12.125 C 13.023438 -11.632812 11.535156 -11.390625 9.828125 -11.390625 L 18.671875 0 L 15.625 0 L 6.96875 -11.390625 L 5.421875 -11.390625 L 5.421875 0 L 2.96875 0 L 2.96875 -24.5 Z M 9.828125 -13.78125 C 11.710938 -13.78125 13.171875 -14.117188 14.203125 -14.796875 C 15.242188 -15.484375 15.765625 -16.546875 15.765625 -17.984375 C 15.765625 -19.234375 15.320312 -20.234375 14.4375 -20.984375 C 13.550781 -21.734375 12.21875 -22.109375 10.4375 -22.109375 L 5.421875 -22.109375 L 5.421875 -13.78125 Z M 9.828125 -13.78125 "/></g></g></g><g fill="#ffffff" fill-opacity="1"><g transform="translate(277.808585, 83.628313)"><g><path d="M 19.71875 -24.5 L 22.1875 -24.5 L 22.1875 0 L 21.640625 0 L 5.421875 -18.53125 L 5.421875 0 L 2.96875 0 L 2.96875 -24.5 L 3.484375 -24.5 L 19.71875 -5.734375 Z M 19.71875 -24.5 "/></g></g></g><g fill="#ffffff" fill-opacity="1"><g transform="translate(302.925111, 83.628313)"><g><path d="M 2.96875 -24.5 L 16.953125 -24.5 L 16.953125 -22.140625 L 5.421875 -22.140625 L 5.421875 -14.40625 L 16.953125 -14.40625 L 16.953125 -12.078125 L 5.421875 -12.078125 L 5.421875 -2.390625 L 16.953125 -2.390625 L 16.953125 0 L 2.96875 0 Z M 2.96875 -24.5 "/></g></g></g><g fill="#ffffff" fill-opacity="1"><g transform="translate(321.18238, 83.628313)"><g><path d="M 8.390625 -11.703125 L 0.515625 -24.5 L 3.34375 -24.5 L 9.625 -14.40625 L 15.796875 -24.5 L 18.625 -24.5 L 10.859375 -11.703125 L 10.859375 0 L 8.390625 0 Z M 8.390625 -11.703125 "/></g></g></g><g clip-path="url(#03fcc82044)"><g clip-path="url(#bcc79b198b)"><path fill="#00faa8" d="M 346.957031 77.394531 L 357.832031 77.394531 L 357.832031 88.265625 L 346.957031 88.265625 Z M 346.957031 77.394531 " fill-opacity="1" fill-rule="nonzero"/></g></g></svg>